<?xml version="1.0" encoding="utf-8"?>
<!-- Generator: Adobe Illustrator 15.0.0, SVG Export Plug-In . SVG Version: 6.00 Build 0)  -->
<!DOCTYPE svg PUBLIC "-//W3C//DTD SVG 1.1//EN" "http://www.w3.org/Graphics/SVG/1.1/DTD/svg11.dtd">
<svg version="1.1" id="Layer_1" xmlns="http://www.w3.org/2000/svg" xmlns:xlink="http://www.w3.org/1999/xlink" x="0px" y="0px"
	 width="123px" height="45.833px" viewBox="32.668 17.833 123 45.833" enable-background="new 32.668 17.833 123 45.833"
	 xml:space="preserve">
<path d="M92.219,21.1c-4.656-0.038-11.655,0.014-11.655,0.014l-7.376,9.424h9.359h0.312h7.891c3.182,0.061,5.771,0.167,5.771,3.238
	c0,3.411-2.58,3.611-5.82,3.611h-7.92l-0.375-0.033h-9.092l-0.004-0.008H60.503l-5.556,7.107h10.141v1.766v2.312
	c-2.1,2.16-5.039,3.541-8.34,3.541c-0.114,0-0.228-0.002-0.341-0.006c-6.204-0.181-11.239-4.269-11.239-10.515
	c0-6.359,4.58-11.002,10.939-11.002c3.9,0,4.34,0,9.695,0l7.506-9.438c-5.75,0-9.703-0.032-16.553,0
	c-11.34,0.053-20.586,9.1-20.586,20.44c0,11.341,9.238,19.521,20.578,19.521c6.779,0,12.779-3.24,16.5-8.281h0.016l-0.023,7.414
	h9.539V46.927h8.039c7.161-0.106,9.021-1.485,11.454-3.729c2.174-2.005,3.965-5.253,3.908-9.202
	C106.08,27.007,102,21.18,92.219,21.1z"/>
<text transform="matrix(1 0 0 1 125.8071 60.1836)" fill="#F7931E" font-family="'Seravek-ExtraLight'" font-size="55.2947" letter-spacing="-2">it</text>
<g>
	<path fill="#F7931E" d="M127.083,23.287c-0.616-0.279-0.856-0.364-1.403-0.47c-0.586-0.114-1.143-0.138-1.659-0.138
		c-2.322,0-4.101,0.701-5.336,2.101c-1.235,1.401-1.852,3.834-1.852,7.299v1.88h8.073v2.042h-8.073v24.167H114.4V36.001h-5.143
		v-2.042h5.143v-1.991c0-1.991,0.23-3.705,0.691-5.143s1.106-2.617,1.936-3.539c0.83-0.921,1.903-1.736,3.083-2.178
		c1.179-0.442,2.364-0.688,3.766-0.688c0.737,0,1.36,0.021,2.016,0.172c0.57,0.132,0.771,0.231,1.192,0.406L127.083,23.287
		L127.083,23.287z"/>
</g>
</svg>
