<?xml version="1.0" encoding="UTF-8" standalone="no"?>
<svg
   xmlns:dc="http://purl.org/dc/elements/1.1/"
   xmlns:cc="http://creativecommons.org/ns#"
   xmlns:rdf="http://www.w3.org/1999/02/22-rdf-syntax-ns#"
   xmlns:svg="http://www.w3.org/2000/svg"
   xmlns="http://www.w3.org/2000/svg"
   viewBox="0 0 154.53333 82.426666"
   height="82.426666"
   width="154.53333"
   xml:space="preserve"
   version="1.1"
   id="svg2"><metadata
     id="metadata8"><rdf:RDF><cc:Work
         rdf:about=""><dc:format>image/svg+xml</dc:format><dc:type
           rdf:resource="http://purl.org/dc/dcmitype/StillImage" /></cc:Work></rdf:RDF></metadata><defs
     id="defs6" /><g
     transform="matrix(1.3333333,0,0,-1.3333333,0,82.426667)"
     id="g10"><g
       transform="scale(0.1)"
       id="g12"><path
         id="path14"
         style="fill:#302f2f;fill-opacity:1;fill-rule:nonzero;stroke:none"
         d="m 560.484,548.422 c -46.558,0.383 -116.546,-0.141 -116.546,-0.141 l -73.766,-94.242 175.621,0 c 31.812,-0.605 57.703,-1.668 57.703,-32.383 0,-34.109 -25.801,-36.113 -58.203,-36.113 l -79.199,0 -3.75,0.332 -90.918,0 -0.039,0.078 -128.059,0 -55.555,-71.074 101.407,0 0,-40.781 c -20.996,-21.602 -50.391,-35.41 -83.399,-35.41 -1.14,0 -2.273,0.011 -3.41,0.046 -62.039,1.813 -112.3905,42.692 -112.3905,105.149 0,63.594 45.8005,110.023 109.3945,110.023 39.004,0 43.398,0 96.953,0 l 75.059,94.375 c -57.5,0 -97.028,0.321 -165.528,0 C 92.4609,547.75 0,457.285 0,343.883 0,230.484 92.3828,148.688 205.781,148.688 c 67.793,0 127.793,32.402 165,82.812 l 0.157,0 -0.235,-74.141 95.391,0 0,132.793 80.39,0 c 71.606,1.075 90.211,14.852 114.539,37.297 21.743,20.055 39.657,52.531 39.082,92.024 -1.007,69.879 -41.812,128.148 -139.621,128.949" /><g
         transform="scale(10)"
         id="g16"><text
           id="text18"
           style="font-variant:normal;font-weight:200;font-size:55.29470062px;font-family:Seravek;-inkscape-font-specification:Seravek-ExtraLight;writing-mode:lr-tb;fill:#f68714;fill-opacity:1;fill-rule:nonzero;stroke:none"
           transform="matrix(1,0,0,-1,89.6367,15.7594)"><tspan
             id="tspan20"
             y="0"
             x="0 8.3491182">it</tspan></text>
</g><path
         id="path22"
         style="fill:#f68714;fill-opacity:1;fill-rule:nonzero;stroke:none"
         d="m 909.125,526.551 c -6.16,2.793 -8.563,3.64 -14.027,4.703 -5.864,1.144 -11.43,1.383 -16.59,1.383 -23.227,0 -41.012,-7.008 -53.363,-21.012 -12.352,-14.012 -18.52,-38.344 -18.52,-72.988 l 0,-18.801 80.73,0 0,-19.906 -80.73,0 0,-242.192 -24.328,0 0,242.192 -51.43,0 0,19.906 51.43,0 0,19.906 c 0,19.906 2.297,37.051 6.906,51.426 4.609,14.375 11.063,26.168 19.356,35.383 8.296,9.215 19.031,17.359 30.832,21.777 11.793,4.426 23.64,6.875 37.656,6.875 7.367,0 13.601,-0.203 20.156,-1.719 5.703,-1.316 7.715,-2.308 11.922,-4.062 l 0,-22.871" /></g></g></svg>